<svg width="32" height="32" viewBox="0 0 32 32" fill="none" xmlns="http://www.w3.org/2000/svg">
<g id="Instagram">
<path id="Vector" d="M10.2407 1.92017C5.65185 1.92017 1.92065 5.65137 1.92065 10.2402V21.7602C1.92065 26.349 5.65185 30.0802 10.2407 30.0802H21.7607C26.3495 30.0802 30.0807 26.349 30.0807 21.7602V10.2402C30.0807 5.65137 26.3495 1.92017 21.7607 1.92017H10.2407ZM23.6807 7.04017C24.3847 7.04017 24.9607 7.61617 24.9607 8.32017C24.9607 9.02417 24.3847 9.60017 23.6807 9.60017C22.9767 9.60017 22.4007 9.02417 22.4007 8.32017C22.4007 7.61617 22.9767 7.04017 23.6807 7.04017ZM16.0007 8.96017C19.8855 8.96017 23.0407 12.1154 23.0407 16.0002C23.0407 19.885 19.8855 23.0402 16.0007 23.0402C12.1159 23.0402 8.96065 19.885 8.96065 16.0002C8.96065 12.1154 12.1159 8.96017 16.0007 8.96017ZM16.0007 10.2402C12.8263 10.2402 10.2407 12.8258 10.2407 16.0002C10.2407 19.1746 12.8263 21.7602 16.0007 21.7602C19.1751 21.7602 21.7607 19.1746 21.7607 16.0002C21.7607 12.8258 19.1751 10.2402 16.0007 10.2402Z" fill="#232333"/>
</g>
</svg>
