<svg width="33" height="32" viewBox="0 0 33 32" fill="none" xmlns="http://www.w3.org/2000/svg">
<g id="Letter" clip-path="url(#clip0_12_5512)">
<path id="Vector" d="M0.720215 4.48022V6.26022C2.64771 7.93772 13.7052 17.5777 14.5802 18.3402C15.4802 19.1252 16.3777 19.2002 16.7202 19.2002C17.0627 19.2002 17.9602 19.1252 18.8602 18.3402C19.7677 17.5502 31.4702 7.34772 32.7202 6.26022V4.48022H0.720215ZM0.720215 7.96022V24.0202L10.4002 16.3802C7.26271 13.6502 2.78771 9.76022 0.720215 7.96022ZM32.7202 7.96022C30.7677 9.66022 26.2227 13.6102 23.0402 16.3802L32.7202 24.0002V7.96022ZM11.3802 17.2402L0.720215 25.6402V27.5202H32.7202V25.6202L22.0602 17.2402C20.8202 18.3202 19.9277 19.1027 19.7002 19.3002C18.4727 20.3677 17.2052 20.4802 16.7202 20.4802C16.2352 20.4802 14.9677 20.3702 13.7402 19.3002C13.5152 19.1052 12.6227 18.3227 11.3802 17.2402Z" fill="#232333"/>
</g>
<defs>
<clipPath id="clip0_12_5512">
<rect width="32" height="32" fill="white" transform="translate(0.720215)"/>
</clipPath>
</defs>
</svg>
