<svg width="33" height="32" viewBox="0 0 33 32" fill="none" xmlns="http://www.w3.org/2000/svg">
<g id="LinkedIn 2">
<path id="Vector" d="M5.28019 1.92627C3.05939 1.92627 1.44644 3.25712 1.44644 5.08752C1.44644 6.92432 3.09779 8.31377 5.28019 8.31377C7.50098 8.31377 9.11393 6.95722 9.11393 5.05002C9.01153 3.21322 7.43058 1.92627 5.28019 1.92627ZM2.08019 9.60002C1.72819 9.60002 1.44019 9.88802 1.44019 10.24V28.8C1.44019 29.152 1.72819 29.44 2.08019 29.44H8.48018C8.83218 29.44 9.12018 29.152 9.12018 28.8V10.24C9.12018 9.88802 8.83218 9.60002 8.48018 9.60002H2.08019ZM11.6802 9.60002C11.3282 9.60002 11.0402 9.88802 11.0402 10.24V28.8C11.0402 29.152 11.3282 29.44 11.6802 29.44H17.4402C17.7935 29.44 18.0802 29.1533 18.0802 28.8V19.2V19.04V18.88C18.0802 17.3632 19.2454 16.1277 20.7302 16.0125C20.807 15.9997 20.8834 16 20.9602 16C21.037 16 21.1134 15.9997 21.1902 16.0125C22.675 16.1277 23.8402 17.3632 23.8402 18.88V28.8C23.8402 29.1533 24.1269 29.44 24.4802 29.44H30.2402C30.5922 29.44 30.8802 29.152 30.8802 28.8V17.92C30.8802 13.7792 28.6588 9.60002 23.7052 9.60002C21.4524 9.60002 19.7506 10.4706 18.7202 11.1938V10.24C18.7202 9.88802 18.4322 9.60002 18.0802 9.60002H11.6802Z" fill="#232333"/>
</g>
</svg>
