<svg width="33" height="32" viewBox="0 0 33 32" fill="none" xmlns="http://www.w3.org/2000/svg">
<g id="YouTube">
<path id="Vector" d="M29.1749 9.28013C28.9199 7.87263 27.7049 6.84763 26.2949 6.52763C24.1849 6.08013 20.2799 5.76013 16.0549 5.76013C11.8324 5.76013 7.86486 6.08013 5.75236 6.52763C4.34486 6.84763 3.12736 7.80763 2.87236 9.28013C2.61486 10.8801 2.35986 13.1201 2.35986 16.0001C2.35986 18.8801 2.61486 21.1201 2.93486 22.7201C3.19236 24.1276 4.40736 25.1526 5.81486 25.4726C8.05486 25.9201 11.8949 26.2401 16.1199 26.2401C20.3449 26.2401 24.1849 25.9201 26.4249 25.4726C27.8324 25.1526 29.0474 24.1926 29.3049 22.7201C29.5599 21.1201 29.8799 18.8151 29.9449 16.0001C29.8149 13.1201 29.4949 10.8801 29.1749 9.28013ZM12.5999 20.4801V11.5201L20.4074 16.0001L12.5999 20.4801Z" fill="#232333"/>
</g>
</svg>
